<svg version="1.1" id="Layer_1" xmlns="http://www.w3.org/2000/svg" xmlns:xlink="http://www.w3.org/1999/xlink" x="0px" y="0px"
	 width="100%" viewBox="0 0 681 626" enable-background="new 0 0 681 626" xml:space="preserve">

<path fill="#C2C2C2" opacity="1.000000" stroke="none" 
	d="
M111.930176,156.000000 
	C111.930168,283.830963 111.916023,411.161957 112.000153,538.492859 
	C112.002640,542.240173 111.096390,544.883240 108.284790,547.587402 
	C97.368378,558.086670 86.782333,568.929321 75.417702,580.300232 
	C75.417702,404.233154 75.417702,229.062454 75.417702,53.445724 
	C250.947845,53.445724 426.603363,53.445724 602.258850,53.445724 
	C602.555542,53.763756 602.852173,54.081787 603.148865,54.399818 
	C594.827942,62.425232 585.866455,69.901451 578.375732,78.638672 
	C571.601685,86.539986 563.985840,88.370445 554.016968,88.350479 
	C409.020264,88.060074 264.022766,88.151146 119.025452,88.151459 
	C111.932777,88.151474 111.930962,88.153038 111.930626,95.000443 
	C111.929657,115.166962 111.930260,135.333481 111.930176,156.000000 
z"/>
</svg>